bend_the_leg_backward coordinate motion generated from LLM joint_angles
version=1
nRows=15
nColumns=36
inDegrees=yes
endheader
time	pelvis_tilt	pelvis_list	pelvis_rotation	pelvis_tx	pelvis_ty	pelvis_tz	hip_flexion_r	hip_adduction_r	hip_rotation_r	knee_angle_r	knee_angle_r_beta	ankle_angle_r	subtalar_angle_r	mtp_angle_r	hip_flexion_l	hip_adduction_l	hip_rotation_l	knee_angle_l	knee_angle_l_beta	ankle_angle_l	subtalar_angle_l	mtp_angle_l	lumbar_extension	lumbar_bending	lumbar_rotation	arm_flex_r	arm_add_r	arm_rot_r	elbow_flex_r	pro_sup_r	arm_flex_l	arm_add_l	arm_rot_l	elbow_flex_l	pro_sup_l
0.246667	0.000000	0.000000	0.000000	0.000000	0.000000	0.000000	-13.993267	0.000000	0.000000	62.969701	0.000000	-6.996633	0.000000	0.000000	-13.993267	0.000000	0.000000	62.969701	0.000000	-6.996633	0.000000	0.000000	0.000000	0.000000	0.000000	0.000000	0.000000	0.000000	0.000000	0.000000	0.000000	0.000000	0.000000	0.000000	0.000000
0.253333	0.000000	0.000000	0.000000	0.000000	0.000000	0.000000	-14.289454	0.000000	0.000000	64.302541	0.000000	-7.144727	0.000000	0.000000	-14.289454	0.000000	0.000000	64.302541	0.000000	-7.144727	0.000000	0.000000	0.000000	0.000000	0.000000	0.000000	0.000000	0.000000	0.000000	0.000000	0.000000	0.000000	0.000000	0.000000	0.000000
0.260000	0.000000	0.000000	0.000000	0.000000	0.000000	0.000000	-14.579373	0.000000	0.000000	65.607176	0.000000	-7.289686	0.000000	0.000000	-14.579373	0.000000	0.000000	65.607176	0.000000	-7.289686	0.000000	0.000000	0.000000	0.000000	0.000000	0.000000	0.000000	0.000000	0.000000	0.000000	0.000000	0.000000	0.000000	0.000000	0.000000
0.266667	0.000000	0.000000	0.000000	0.000000	0.000000	0.000000	-14.862897	0.000000	0.000000	66.883034	0.000000	-7.431448	0.000000	0.000000	-14.862897	0.000000	0.000000	66.883034	0.000000	-7.431448	0.000000	0.000000	0.000000	0.000000	0.000000	0.000000	0.000000	0.000000	0.000000	0.000000	0.000000	0.000000	0.000000	0.000000	0.000000
0.273333	0.000000	0.000000	0.000000	0.000000	0.000000	0.000000	-15.139901	0.000000	0.000000	68.129555	0.000000	-7.569951	0.000000	0.000000	-15.139901	0.000000	0.000000	68.129555	0.000000	-7.569951	0.000000	0.000000	0.000000	0.000000	0.000000	0.000000	0.000000	0.000000	0.000000	0.000000	0.000000	0.000000	0.000000	0.000000	0.000000
0.280000	0.000000	0.000000	0.000000	0.000000	0.000000	0.000000	-15.410265	0.000000	0.000000	69.346192	0.000000	-7.705132	0.000000	0.000000	-15.410265	0.000000	0.000000	69.346192	0.000000	-7.705132	0.000000	0.000000	0.000000	0.000000	0.000000	0.000000	0.000000	0.000000	0.000000	0.000000	0.000000	0.000000	0.000000	0.000000	0.000000
0.286667	0.000000	0.000000	0.000000	0.000000	0.000000	0.000000	-15.673869	0.000000	0.000000	70.532411	0.000000	-7.836935	0.000000	0.000000	-15.673869	0.000000	0.000000	70.532411	0.000000	-7.836935	0.000000	0.000000	0.000000	0.000000	0.000000	0.000000	0.000000	0.000000	0.000000	0.000000	0.000000	0.000000	0.000000	0.000000	0.000000
0.293333	0.000000	0.000000	0.000000	0.000000	0.000000	0.000000	-15.930598	0.000000	0.000000	71.687693	0.000000	-7.965299	0.000000	0.000000	-15.930598	0.000000	0.000000	71.687693	0.000000	-7.965299	0.000000	0.000000	0.000000	0.000000	0.000000	0.000000	0.000000	0.000000	0.000000	0.000000	0.000000	0.000000	0.000000	0.000000	0.000000
0.300000	0.000000	0.000000	0.000000	0.000000	0.000000	0.000000	-16.180340	0.000000	0.000000	72.811529	0.000000	-8.090170	0.000000	0.000000	-16.180340	0.000000	0.000000	72.811529	0.000000	-8.090170	0.000000	0.000000	0.000000	0.000000	0.000000	0.000000	0.000000	0.000000	0.000000	0.000000	0.000000	0.000000	0.000000	0.000000	0.000000
0.306667	0.000000	0.000000	0.000000	0.000000	0.000000	0.000000	-16.422984	0.000000	0.000000	73.903429	0.000000	-8.211492	0.000000	0.000000	-16.422984	0.000000	0.000000	73.903429	0.000000	-8.211492	0.000000	0.000000	0.000000	0.000000	0.000000	0.000000	0.000000	0.000000	0.000000	0.000000	0.000000	0.000000	0.000000	0.000000	0.000000
0.313333	0.000000	0.000000	0.000000	0.000000	0.000000	0.000000	-16.658425	0.000000	0.000000	74.962912	0.000000	-8.329212	0.000000	0.000000	-16.658425	0.000000	0.000000	74.962912	0.000000	-8.329212	0.000000	0.000000	0.000000	0.000000	0.000000	0.000000	0.000000	0.000000	0.000000	0.000000	0.000000	0.000000	0.000000	0.000000	0.000000
0.320000	0.000000	0.000000	0.000000	0.000000	0.000000	0.000000	-16.886559	0.000000	0.000000	75.989513	0.000000	-8.443279	0.000000	0.000000	-16.886559	0.000000	0.000000	75.989513	0.000000	-8.443279	0.000000	0.000000	0.000000	0.000000	0.000000	0.000000	0.000000	0.000000	0.000000	0.000000	0.000000	0.000000	0.000000	0.000000	0.000000
0.326667	0.000000	0.000000	0.000000	0.000000	0.000000	0.000000	-17.107285	0.000000	0.000000	76.982783	0.000000	-8.553643	0.000000	0.000000	-17.107285	0.000000	0.000000	76.982783	0.000000	-8.553643	0.000000	0.000000	0.000000	0.000000	0.000000	0.000000	0.000000	0.000000	0.000000	0.000000	0.000000	0.000000	0.000000	0.000000	0.000000
0.333333	0.000000	0.000000	0.000000	0.000000	0.000000	0.000000	-17.320508	0.000000	0.000000	77.942286	0.000000	-8.660254	0.000000	0.000000	-17.320508	0.000000	0.000000	77.942286	0.000000	-8.660254	0.000000	0.000000	0.000000	0.000000	0.000000	0.000000	0.000000	0.000000	0.000000	0.000000	0.000000	0.000000	0.000000	0.000000	0.000000
0.340000	0.000000	0.000000	0.000000	0.000000	0.000000	0.000000	-17.526134	0.000000	0.000000	78.867601	0.000000	-8.763067	0.000000	0.000000	-17.526134	0.000000	0.000000	78.867601	0.000000	-8.763067	0.000000	0.000000	0.000000	0.000000	0.000000	0.000000	0.000000	0.000000	0.000000	0.000000	0.000000	0.000000	0.000000	0.000000	0.000000
